<?xml version="1.0" encoding="UTF-8"?>
<svg id="Camada_2" xmlns="http://www.w3.org/2000/svg" viewBox="0 0 2042.84 681.27">
  <defs>
    <style>
      .cls-1 {
        fill: #fff;
      }
    </style>
  </defs>
  <g id="Camada_1-2" data-name="Camada_1">
    <g>
      <g>
        <path class="cls-1" d="M509.71,0c78.12,0,111.52,48.31,111.52,103.82,0,43.17-20.56,89.42-73.49,104.33l80.69,138.76h-67.33l-79.15-134.14h-90.45c-5.65,0-8.74,2.57-8.74,8.74v125.4h-60.65v-137.22c0-39.06,16.45-54.99,54.48-54.99h135.17c34.43,0,48.31-23.64,48.31-48.31s-14.9-45.74-48.31-45.74h-190.16V0h188.1Z"/>
        <path class="cls-1" d="M856.81,0c100.73,0,156.75,57.56,156.75,174.23s-55.51,172.68-156.75,172.68h-47.28c-101.24,0-156.75-56.53-156.75-172.68S708.8,0,809.53,0h47.28ZM809.53,60.65c-66.81,0-96.11,33.92-96.11,113.58s28.78,112.04,96.11,112.04h47.28c66.81,0,95.59-32.89,95.59-112.55s-28.78-113.07-95.59-113.07h-47.28Z"/>
        <path class="cls-1" d="M1284.87,5.3v58.79h-98.15v277.51h-59.29V64.09h-98.15V5.3h255.59Z"/>
        <path class="cls-1" d="M1376.49,5.3v336.3h-58.79V5.3h58.79Z"/>
        <path class="cls-1" d="M1492.96,5.3v336.3h-58.79V5.3h58.79Z"/>
        <path class="cls-1" d="M1606.56,5.3c75.73,0,108.11,46.83,108.11,100.64,0,50.82-29.39,105.62-108.11,105.62h-104.63c-5.48,0-8.47,2.49-8.47,8.47v121.57h-58.79v-133.03c0-37.86,15.94-53.31,52.81-53.31h121.07c33.38,0,46.83-22.92,46.83-46.33s-14.45-44.84-46.33-44.84h-174.88V5.3h172.39Z"/>
        <path class="cls-1" d="M2017.43,5.3v58.79h-172.39c-30.39,0-43.85,16.44-43.85,39.86,0,20.43,10.46,39.86,49.82,39.86h78.72c91.67,0,113.1,50.82,113.1,99.15,0,56.8-30.39,98.65-107.12,98.65h-187.33v-58.79h189.33c31.89,0,46.33-17.44,46.33-41.85,0-21.92-11.46-41.85-52.81-41.85h-78.22c-89.68,0-110.61-50.32-110.61-97.15,0-55.8,29.89-96.66,104.63-96.66h170.39Z"/>
        <path class="cls-1" d="M61.16,221.51c0-6.17,3.08-8.74,8.74-8.74h107.93c81.2,0,111.53-56.53,111.53-108.95C289.35,48.31,255.94,0,177.82,0H0v60.65h180.39c32.89,0,47.8,21.07,47.8,46.25s-13.88,47.8-48.31,47.8H54.99c-38.03,0-54.48,15.93-54.48,54.99v131.48c0,3.17,2.57,5.75,5.75,5.75h54.9"/>
      </g>
      <g>
        <path class="cls-1" d="M584.25,455.7h178.1v38.64h-68.07v182.15h-41.95v-182.15h-68.07v-38.64Z"/>
        <path class="cls-1" d="M807.99,455.7h159.33v36.43h-117.38v54.46h106.34v36.06h-106.34v57.4h117.01v36.43h-158.96v-220.79Z"/>
        <path class="cls-1" d="M1008.91,565.73c0-71.39,41.21-114.81,107.45-114.81,57.04,0,91.63,31.28,99.35,84.27l-40.11,7.73c-6.62-35.69-25.02-55.2-59.98-55.2-44.89,0-64.76,32.75-64.76,78.01,0,48.57,19.87,79.11,64.4,79.11,37.17,0,54.09-19.87,61.45-56.67l39.74,7.36c-7.36,53.36-42.68,85.74-101.19,85.74-67.71,0-106.34-44.16-106.34-115.54Z"/>
        <path class="cls-1" d="M1416.64,676.49v-91.26h-106.71v91.26h-41.95v-220.79h41.95v92h106.71v-92h41.95v220.79h-41.95Z"/>
      </g>
    </g>
  </g>
</svg>